<svg width="18" height="18" viewBox="0 0 18 18" fill="none" xmlns="http://www.w3.org/2000/svg">
<g clip-path="url(#clip0_933_1548)">
<path d="M8.32579 7.08598H9.65604C9.66383 6.83366 9.67698 6.6057 9.67698 6.37823C9.67747 5.23162 10.1733 4.53361 11.2591 4.16148C11.4636 4.09134 11.6711 4.02996 11.9273 3.9491C11.3813 3.49367 11.0423 2.95982 11.1168 2.25256C11.1655 1.78739 11.3779 1.39918 11.7388 1.09328C12.431 0.506825 13.4641 0.561379 14.1061 1.22236C14.8202 1.95739 14.7218 2.95933 13.809 3.94277C13.9649 3.99635 14.1115 4.03191 14.2444 4.09523C14.5825 4.25597 14.9386 4.39479 15.244 4.6057C15.7798 4.97492 16.0321 5.51657 16.0365 6.16976C16.0384 6.4586 16.0365 6.74745 16.0365 7.09231C16.2308 7.1001 16.3989 7.10595 16.5664 7.11374C16.8996 7.12835 16.9624 7.1795 17.0102 7.51705C17.1519 8.52144 17.2893 9.5268 17.4271 10.5322C17.5922 11.7382 17.7564 12.9442 17.921 14.1503C17.9308 14.2219 17.9468 14.2935 17.9493 14.3656C17.9571 14.612 17.8743 14.727 17.6385 14.7489C17.4373 14.7679 17.2328 14.7567 17.0301 14.7509C16.8621 14.746 16.7603 14.6598 16.7466 14.4844C16.7335 14.31 16.8173 14.2102 16.9848 14.179C17.0681 14.1634 17.1529 14.1542 17.2298 14.1435C17.3199 13.783 16.5226 8.11861 16.3769 7.72602H1.56106C1.26978 9.86191 0.980443 11.9793 0.688675 14.1171C0.838699 14.1444 0.93563 14.1615 1.03207 14.1805C1.18356 14.2097 1.25516 14.311 1.25809 14.4571C1.26101 14.6072 1.17625 14.7236 1.035 14.7358C0.790964 14.7562 0.541086 14.7645 0.299488 14.7328C0.0900384 14.7051 0.0237939 14.5614 0.0569162 14.2983C0.115367 13.8385 0.182586 13.3792 0.244934 12.9199C0.441719 11.4698 0.63753 10.0192 0.835289 8.56869C0.885947 8.19557 0.93904 7.82246 0.997491 7.45032C1.03646 7.20288 1.11342 7.1342 1.37109 7.11764C1.54255 7.10643 1.71498 7.11569 1.93271 7.11569C1.94391 6.94618 1.95658 6.80833 1.96145 6.67C1.9707 6.39479 1.94537 6.11472 1.98824 5.84535C2.1027 5.12933 2.54596 4.64613 3.17577 4.33439C3.49384 4.17706 3.83626 4.07039 4.2045 3.92621C3.67796 3.48978 3.36768 2.97589 3.42418 2.2925C3.46169 1.83756 3.63948 1.45568 3.97801 1.14833C4.65604 0.532154 5.71108 0.53946 6.35014 1.16586C7.13777 1.9379 7.06812 2.90234 6.11829 3.95154C6.27757 4.00366 6.42077 4.05091 6.56398 4.09718C6.9819 4.23259 7.36817 4.42304 7.69744 4.72212C8.09345 5.08159 8.31751 5.51998 8.3253 6.05919C8.33017 6.39041 8.32628 6.72163 8.32628 7.08793L8.32579 7.08598ZM14.1543 7.08208C14.1543 6.88286 14.1475 6.71238 14.1558 6.54336C14.1685 6.28276 14.2761 6.15807 14.4695 6.16196C14.6448 6.16586 14.7286 6.27399 14.7432 6.52923C14.7539 6.71092 14.7564 6.89309 14.7632 7.08062H15.4471C15.4471 6.7645 15.4466 6.47857 15.4471 6.19216C15.4485 5.72407 15.2518 5.35875 14.8859 5.07185C14.4724 4.74794 13.9887 4.6057 13.4841 4.53313C12.6638 4.41525 11.865 4.49075 11.1168 4.8775C10.7457 5.06942 10.4271 5.33634 10.3258 5.75524C10.2211 6.18875 10.2527 6.63542 10.3029 7.08549H10.9376C10.9376 6.87653 10.9278 6.69192 10.94 6.50829C10.9551 6.2852 11.0764 6.15904 11.2498 6.16002C11.4217 6.16099 11.5143 6.2774 11.5318 6.52339C11.545 6.70556 11.5523 6.88822 11.5625 7.08208H14.1534H14.1543ZM7.05886 7.08452H7.70085C7.70085 6.64467 7.72959 6.22626 7.6877 5.81515C7.66919 5.63103 7.54644 5.4211 7.40665 5.29348C7.17528 5.08257 6.91274 4.87458 6.62584 4.76157C5.65799 4.37921 4.66773 4.3758 3.69501 4.75183C2.6765 5.1454 2.29121 6.01243 2.63168 7.07916H3.26442C3.26442 6.83318 3.25614 6.61837 3.26734 6.40405C3.27513 6.25208 3.38424 6.14735 3.52452 6.17024C3.63363 6.18778 3.74761 6.27643 3.82214 6.36508C3.86744 6.41866 3.84308 6.53215 3.84795 6.61886C3.85672 6.7718 3.86354 6.92475 3.87182 7.08111H6.43734C6.45049 6.96859 6.46461 6.88529 6.469 6.80103C6.47387 6.69971 6.47094 6.59791 6.47046 6.4966C6.469 6.31686 6.52793 6.18193 6.72959 6.16148C6.90981 6.14297 7.03987 6.26279 7.05692 6.48393C7.07104 6.66951 7.05984 6.85704 7.05984 7.08452H7.05886ZM5.15482 3.56674C5.77927 3.56089 6.29754 3.05091 6.30338 2.43668C6.30923 1.81856 5.74128 1.25597 5.13047 1.27497C4.51478 1.29348 4.00675 1.82441 4.01551 2.44058C4.02428 3.07721 4.52599 3.57258 5.15531 3.56674H5.15482ZM13.9858 2.43814C13.9897 1.81028 13.4968 1.29543 12.8723 1.27594C12.26 1.25695 11.6921 1.81954 11.6994 2.43814C11.7067 3.05578 12.2289 3.56771 12.8489 3.56625C13.4836 3.56479 13.9814 3.07039 13.9853 2.43766L13.9858 2.43814Z" fill="#060606"/>
<path d="M6.05298 12.2741C6.36765 12.3773 6.58879 12.4431 6.80506 12.5225C7.26341 12.691 7.656 12.9531 7.95946 13.3423C8.15138 13.5887 8.2902 13.8605 8.30335 14.1732C8.32381 14.6647 8.32186 15.1576 8.3243 15.6501C8.3243 15.7207 8.31991 15.8079 8.27997 15.8576C8.22152 15.9307 8.13189 16.0183 8.05152 16.0222C7.97115 16.0266 7.84938 15.9545 7.81139 15.882C7.7544 15.7728 7.73686 15.634 7.73345 15.5069C7.72469 15.1883 7.72566 14.8683 7.73686 14.5498C7.75294 14.0953 7.57904 13.7378 7.23223 13.4484C6.8148 13.1002 6.3165 12.9414 5.79775 12.8742C5.08757 12.7821 4.38323 12.8152 3.70082 13.0885C2.80262 13.448 2.5167 14.0052 2.55128 14.7339C2.56589 15.0378 2.56151 15.3432 2.55225 15.6477C2.54446 15.8966 2.4485 16.0169 2.28046 16.0291C2.10072 16.0417 1.96969 15.8985 1.96433 15.6443C1.95508 15.2093 1.93754 14.7724 1.96969 14.3393C2.01597 13.709 2.31309 13.1942 2.85815 12.8717C3.26438 12.6311 3.71153 12.4592 4.16453 12.2453C4.11144 12.1908 4.03886 12.1119 3.96239 12.0378C3.26536 11.3598 3.23126 10.2517 3.88689 9.57168C4.54349 8.89072 5.64334 8.84737 6.32235 9.47523C7.05104 10.1489 7.09147 11.2331 6.41051 11.9677C6.32381 12.0612 6.21665 12.1357 6.05396 12.2755L6.05298 12.2741ZM5.16404 9.62282C4.53764 9.61844 4.02571 10.1192 4.0145 10.7461C4.0033 11.3676 4.5089 11.899 5.12313 11.9122C5.75976 11.9258 6.30481 11.3958 6.30238 10.7655C6.29994 10.1494 5.77973 9.62672 5.16404 9.62282Z" fill="#060606"/>
<path d="M13.7902 12.2748C14.1351 12.402 14.4429 12.4901 14.7283 12.6246C15.5924 13.0323 16.0839 13.6869 16.0406 14.6816C16.0284 14.9568 16.0391 15.233 16.0376 15.5082C16.0372 15.5949 16.041 15.6835 16.0245 15.7683C15.9938 15.9271 15.8925 16.0381 15.7283 16.0318C15.5661 16.0255 15.4663 15.9173 15.4517 15.7493C15.4444 15.6626 15.4468 15.5754 15.4468 15.4882C15.4468 15.1979 15.4375 14.9076 15.4487 14.6178C15.4726 13.9991 15.1974 13.5432 14.664 13.2709C13.4916 12.6723 12.2919 12.6621 11.1073 13.231C10.5403 13.5033 10.2266 13.9651 10.269 14.6294C10.2885 14.9329 10.2802 15.2388 10.2724 15.5432C10.2695 15.6557 10.2627 15.7892 10.2028 15.874C10.1463 15.9534 10.0104 16.0303 9.92171 16.0181C9.83744 16.0065 9.74343 15.8905 9.70057 15.7985C9.66063 15.7132 9.67914 15.5997 9.67865 15.4984C9.67621 15.194 9.68596 14.8886 9.67378 14.5846C9.64114 13.7561 10.0294 13.1618 10.7215 12.7668C11.0693 12.5681 11.4595 12.4434 11.8735 12.2666C11.7848 12.175 11.6899 12.0805 11.5988 11.9821C10.8657 11.1911 10.9612 10.0284 11.8121 9.37713C12.5262 8.83013 13.5613 8.94362 14.1687 9.6348C14.7444 10.2895 14.7181 11.3542 14.1088 11.9758C14.0191 12.0673 13.9217 12.1521 13.7902 12.2753V12.2748ZM12.8686 11.9168C13.4897 11.9056 13.9909 11.3883 13.986 10.7634C13.9811 10.1219 13.4448 9.60558 12.8068 9.62847C12.1994 9.65039 11.6772 10.2037 11.6986 10.8028C11.7205 11.4185 12.2554 11.9275 12.8686 11.9163V11.9168Z" fill="#060606"/>
<path d="M12.8592 14.4961C13.1778 14.4961 13.4968 14.4859 13.8149 14.4985C14.3858 14.5204 14.7238 14.8585 14.7394 15.4323C14.7525 15.9242 14.7433 16.4167 14.7433 16.9091C14.7433 16.9525 14.7442 16.9968 14.7374 17.0392C14.7111 17.2019 14.6269 17.3013 14.4496 17.3022C14.2688 17.3032 14.1904 17.1887 14.1631 17.0353C14.1456 16.9369 14.1539 16.8332 14.1534 16.7318C14.1524 16.3266 14.1607 15.9208 14.15 15.5156C14.1412 15.1936 14.0511 15.0972 13.7316 15.0908C13.1383 15.0796 12.5441 15.0806 11.9508 15.0913C11.6537 15.0967 11.5494 15.2111 11.5392 15.5302C11.5265 15.9208 11.5348 16.312 11.5324 16.7031C11.5319 16.819 11.5333 16.9354 11.5207 17.0499C11.5046 17.1956 11.4237 17.2915 11.2693 17.2993C11.1003 17.3076 10.9956 17.2175 10.9542 17.0597C10.9367 16.991 10.9401 16.9165 10.9396 16.8444C10.9381 16.4099 10.9313 15.9754 10.9396 15.5414C10.9522 14.8541 11.3049 14.5058 11.9907 14.4951C12.2801 14.4907 12.5699 14.4941 12.8597 14.4941V14.4966L12.8592 14.4961Z" fill="#060606"/>
<path d="M5.15439 14.4967C5.48756 14.4967 5.82171 14.4845 6.15439 14.5001C6.66146 14.5235 7.03116 14.8732 7.05454 15.3813C7.0789 15.902 7.05941 16.4246 7.05941 16.9463C7.05941 17.1051 6.99999 17.2317 6.8446 17.2887C6.64977 17.3598 6.48562 17.2405 6.47587 16.9974C6.46126 16.6209 6.47052 16.2439 6.46954 15.8674C6.46954 15.7369 6.47734 15.6058 6.46467 15.4763C6.43886 15.2181 6.33608 15.1007 6.0823 15.0949C5.45931 15.0807 4.83632 15.0768 4.21333 15.0876C3.95956 15.0919 3.86019 15.2088 3.85288 15.4806C3.84217 15.8864 3.85094 16.2921 3.84996 16.6979C3.84996 16.8138 3.85581 16.9312 3.83827 17.0452C3.81343 17.2079 3.71163 17.3043 3.54066 17.3014C3.36725 17.2985 3.27373 17.1986 3.26253 17.0301C3.25279 16.8859 3.25717 16.7403 3.25717 16.5956C3.25717 16.2045 3.2484 15.8128 3.25961 15.4217C3.27519 14.8796 3.61762 14.525 4.15439 14.5001C4.48708 14.4845 4.82074 14.4972 5.15439 14.4977V14.4967Z" fill="#060606"/>
</g>
<defs>
<clipPath id="clip0_933_1548">
<rect width="18" height="16.7189" fill="white" transform="translate(0 0.640625)"/>
</clipPath>
</defs>
</svg>
