<svg width="18" height="10" viewBox="0 0 18 10" fill="none" xmlns="http://www.w3.org/2000/svg">
<g clip-path="url(#clip0_933_1842)">
<path d="M0.13862 8.97863C0.17882 8.92668 0.221442 8.87189 0.266002 8.81427C0.592446 8.39251 1.03029 7.82671 1.55967 7.21226C2.36852 6.27287 3.37692 5.64566 4.50882 5.24469C5.62619 4.84891 6.86222 4.67605 8.14233 4.64157V4.64062H8.15008H16.5597C16.6958 4.64062 16.8091 4.73556 16.8338 4.86119L17.9192 9.0882C17.9565 9.23367 17.8659 9.38149 17.7163 9.41786C17.6921 9.424 17.6674 9.42636 17.6436 9.42589H0.351245C0.197225 9.42589 0.0722656 9.30404 0.0722656 9.15385C0.0722656 9.08678 0.0969669 9.02539 0.13862 8.97816V8.97863ZM1.98638 7.56081C1.56839 8.0468 1.20562 8.50445 0.911142 8.88228H17.2905L16.3412 5.18471H8.14911V5.18376C6.92761 5.21729 5.7526 5.38118 4.69771 5.75476C3.65493 6.12409 2.72742 6.70029 1.98638 7.56081Z" fill="#060606" stroke="#060606" stroke-width="0.142403" stroke-miterlimit="10"/>
<path d="M17.3493 8.26283C17.5033 8.26283 17.6282 8.14098 17.6282 7.99079C17.6282 7.8406 17.5033 7.71875 17.3493 7.71875H1.26531C1.11129 7.71875 0.986328 7.8406 0.986328 7.99079C0.986328 8.14098 1.11129 8.26283 1.26531 8.26283H17.3493Z" fill="#060606" stroke="#060606" stroke-width="0.142403" stroke-miterlimit="10"/>
<path d="M9.24072 3.71875H11.0279C11.2594 3.71875 11.4697 3.81085 11.6222 3.95962C11.7743 4.10792 11.8692 4.31337 11.8692 4.53912V4.91412C11.8692 5.06431 11.7443 5.18616 11.5903 5.18616H8.67937C8.52535 5.18616 8.40039 5.06431 8.40039 4.91412V4.53912C8.40039 4.31337 8.49484 4.10839 8.6474 3.95962C8.79949 3.81132 9.01017 3.71875 9.24169 3.71875H9.24072ZM11.0279 4.26283H9.24072C9.16323 4.26283 9.09251 4.294 9.04117 4.34406C8.98983 4.39413 8.95787 4.46308 8.95787 4.53865V4.64161H11.3108V4.53865C11.3108 4.46308 11.2788 4.39413 11.2275 4.34406C11.1761 4.294 11.1054 4.26283 11.0279 4.26283Z" fill="#060606" stroke="#060606" stroke-width="0.142403" stroke-miterlimit="10"/>
<path fill-rule="evenodd" clip-rule="evenodd" d="M14.4746 5.92188C14.8393 5.92188 15.1348 6.20997 15.1348 6.56561C15.1348 6.92125 14.8393 7.20934 14.4746 7.20934C14.1099 7.20934 13.8145 6.92125 13.8145 6.56561C13.8145 6.20997 14.1099 5.92188 14.4746 5.92188Z" fill="#060606" stroke="#060606" stroke-width="0.142403" stroke-miterlimit="10"/>
<path d="M16.2914 4.99191C16.3355 5.13549 16.4905 5.21767 16.6382 5.17469C16.7855 5.13171 16.8697 4.98058 16.8257 4.83653L15.7165 1.22302C15.7122 1.20366 15.7059 1.18476 15.6976 1.16682C15.6221 0.984513 15.4942 0.836213 15.3368 0.733253C15.1736 0.626043 14.9784 0.568423 14.7779 0.571257V0.570312H7.17907C6.90978 0.570312 6.66567 0.677051 6.48889 0.848965C6.3121 1.02135 6.20312 1.25891 6.20312 1.52198C6.20312 1.78505 6.31259 2.02261 6.48889 2.195C6.66567 2.36738 6.90978 2.47365 7.17907 2.47365H14.1003L14.7977 4.98483C14.8374 5.12982 14.99 5.21578 15.1387 5.17705C15.2874 5.13832 15.3755 4.98955 15.3358 4.84456L14.5861 2.14446C14.5594 2.02167 14.4471 1.92957 14.3134 1.92957H7.17907C7.0638 1.92957 6.95918 1.88376 6.88362 1.81008C6.80807 1.7364 6.76108 1.63439 6.76108 1.52198C6.76108 1.40958 6.80807 1.30756 6.88362 1.23388C6.95918 1.16021 7.0638 1.11439 7.17907 1.11439H14.7779H14.7837V1.11345C14.8704 1.11156 14.9556 1.13706 15.0273 1.18382C15.0917 1.22633 15.145 1.28725 15.1779 1.36329L16.2919 4.99191H16.2914Z" fill="#060606" stroke="#060606" stroke-width="0.142403" stroke-miterlimit="10"/>
</g>
<defs>
<clipPath id="clip0_933_1842">
<rect width="18" height="9" fill="white" transform="translate(0 0.5)"/>
</clipPath>
</defs>
</svg>
