<svg width="18" height="18" viewBox="0 0 18 18" fill="none" xmlns="http://www.w3.org/2000/svg">
<g clip-path="url(#clip0_933_1850)">
<path d="M1.375 6.1224C1.375 5.70247 1.54181 5.29974 1.83875 5.00281C2.13568 4.70588 2.53841 4.53906 2.95833 4.53906H14.0417C14.4616 4.53906 14.8643 4.70588 15.1613 5.00281C15.4582 5.29974 15.625 5.70247 15.625 6.1224V13.2474C15.625 13.6673 15.4582 14.07 15.1613 14.367C14.8643 14.6639 14.4616 14.8307 14.0417 14.8307H2.95833C2.53841 14.8307 2.13568 14.6639 1.83875 14.367C1.54181 14.07 1.375 13.6673 1.375 13.2474V6.1224Z" stroke="#060606" stroke-width="1.1875" stroke-linecap="round" stroke-linejoin="round"/>
<path d="M11.6673 1.375L8.50065 4.54167L5.33398 1.375" stroke="#060606" stroke-width="1.1875" stroke-linecap="round" stroke-linejoin="round"/>
</g>
<defs>
<clipPath id="clip0_933_1850">
<rect width="18" height="18" fill="white"/>
</clipPath>
</defs>
</svg>
