<svg width="18" height="18" viewBox="0 0 18 18" fill="none" xmlns="http://www.w3.org/2000/svg">
<path d="M12.7578 7.03875V10.8847L15.7496 13.5V4.5L12.7578 7.03875Z" stroke="black" stroke-width="0.9" stroke-linecap="round" stroke-linejoin="round"/>
<path d="M2.91525 4.5H10.4753C11.5763 4.5 12.75 5.40225 12.75 6.60225V12.7493C12.7518 12.9455 12.6759 13.1345 12.5389 13.275C12.402 13.4155 12.215 13.4961 12.0187 13.4993H4.239C2.98875 13.4993 2.25 12.3742 2.25 11.2492L2.2575 5.24925C2.24339 5.15449 2.25003 5.05779 2.27697 4.96585C2.3039 4.87391 2.35049 4.78892 2.4135 4.71675C2.47575 4.64547 2.55323 4.58912 2.64022 4.55186C2.7272 4.5146 2.82146 4.49739 2.916 4.5015L2.91525 4.5Z" stroke="black" stroke-width="0.9" stroke-linecap="round" stroke-linejoin="round"/>
</svg>
