<svg width="18" height="18" viewBox="0 0 18 18" fill="none" xmlns="http://www.w3.org/2000/svg">
<g clip-path="url(#clip0_933_1642)">
<path d="M2.25 3.75C2.25 3.55109 2.32902 3.36032 2.46967 3.21967C2.61032 3.07902 2.80109 3 3 3H15C15.1989 3 15.3897 3.07902 15.5303 3.21967C15.671 3.36032 15.75 3.55109 15.75 3.75V11.25C15.75 11.4489 15.671 11.6397 15.5303 11.7803C15.3897 11.921 15.1989 12 15 12H3C2.80109 12 2.61032 11.921 2.46967 11.7803C2.32902 11.6397 2.25 11.4489 2.25 11.25V3.75Z" stroke="#060606" stroke-width="0.9" stroke-linecap="round" stroke-linejoin="round"/>
<path d="M5.25 15H12.75" stroke="#060606" stroke-width="0.9" stroke-linecap="round" stroke-linejoin="round"/>
<path d="M6.75 12V15" stroke="#060606" stroke-width="0.9" stroke-linecap="round" stroke-linejoin="round"/>
<path d="M11.25 12V15" stroke="#060606" stroke-width="0.9" stroke-linecap="round" stroke-linejoin="round"/>
<path d="M6.75 9V6" stroke="#060606" stroke-width="0.9" stroke-linecap="round" stroke-linejoin="round"/>
<path d="M9 9V8.25" stroke="#060606" stroke-width="0.9" stroke-linecap="round" stroke-linejoin="round"/>
<path d="M11.25 9V7.5" stroke="#060606" stroke-width="0.9" stroke-linecap="round" stroke-linejoin="round"/>
<path d="M9 9V8.25" stroke="#060606" stroke-width="0.9" stroke-linecap="round" stroke-linejoin="round"/>
</g>
<defs>
<clipPath id="clip0_933_1642">
<rect width="18" height="18" fill="white"/>
</clipPath>
</defs>
</svg>
