<svg width="18" height="18" viewBox="0 0 18 18" fill="none" xmlns="http://www.w3.org/2000/svg">
<path d="M0.302258 0.962128C0.302258 0.962128 0.302257 0.95896 0.301193 0.95896C-0.000880623 1.17382 -0.682669 2.13958 2.06152 6.01655L5.48005 10.72C6.12462 11.5719 6.73516 11.4358 7.40738 11.2369C7.40738 11.2369 8.5476 10.8817 9.4719 11.9145C9.4719 11.9145 9.76653 12.2197 9.9516 12.5824C10.2462 13.16 10.1633 13.5652 10.8589 14.2608L13.5244 16.9263C14.2966 17.7007 14.6486 17.5698 15.005 17.2135L15.2251 16.9933C15.8548 16.3626 15.5655 16.069 14.9741 15.4755L0.550082 1.05148C0.390536 0.891937 0.300131 0.958936 0.302258 0.961064V0.962128Z" fill="#060606"/>
<path d="M10.3738 9.00303C12.0661 9.29446 12.9574 8.47121 13.3084 8.04894L17.1269 3.36786C17.4151 3.01473 17.5406 2.61692 17.4077 2.48503C17.2747 2.35208 16.9109 2.51589 16.6014 2.84881L13.703 5.97058C13.3924 6.30457 13.1052 6.53327 12.9574 6.38648C12.7851 6.21417 13.0212 5.91421 13.3201 5.57172L16.1334 2.37867C16.394 2.08191 16.5514 1.62775 16.4376 1.51713C16.327 1.41715 15.8792 1.56712 15.5824 1.82771L12.3873 4.6389C12.0469 4.93991 11.7459 5.175 11.5736 5.00375C11.4268 4.85591 11.6544 4.56659 11.9895 4.25814L15.1113 1.35865C15.4442 1.04807 15.609 0.685359 15.475 0.552404C15.3431 0.420512 14.9443 0.546012 14.5922 0.834258L9.91112 4.65274C9.48992 5.00375 8.66666 5.89509 8.95704 7.58627C8.98576 7.8224 8.74962 8.00747 8.63369 8.11703L8.51562 8.22656L9.73244 9.44552L9.84411 9.32638C9.95367 9.20938 10.1366 8.97537 10.3717 9.00303H10.3738Z" fill="#060606"/>
<path d="M5.22802 11.2969L0.751157 15.4855C0.419301 15.7961 0.376757 16.347 0.69904 16.6683L0.969209 16.9395L1.01281 16.9831L1.28404 17.2554C1.60633 17.5755 2.15836 17.5341 2.46894 17.2022L7.54037 11.7829C7.25212 11.867 6.94474 11.9489 6.62033 11.9489C6.09064 11.9489 5.63326 11.734 5.22802 11.2969Z" fill="#060606"/>
</svg>
