<svg width="18" height="20" viewBox="0 0 18 20" fill="none" xmlns="http://www.w3.org/2000/svg">
<g clip-path="url(#clip0_933_1857)">
<path d="M7.42973 18.6818C8.71565 18.6818 9.92493 18.6818 11.1342 18.6818C11.3074 18.6818 11.4806 18.6761 11.6531 18.6852C11.8866 18.6972 12.0685 18.7846 12.0837 19.0423C12.096 19.2456 11.9422 19.3807 11.6637 19.4102C11.5309 19.4244 11.3951 19.4153 11.2606 19.4153C8.41552 19.4153 5.57105 19.4153 2.72599 19.4153C2.59143 19.4153 2.45336 19.4272 2.32406 19.4023C2.12866 19.3642 2.01048 19.2189 2.05553 19.0367C2.08595 18.9135 2.19535 18.7693 2.31002 18.7159C2.43698 18.6563 2.61015 18.6841 2.76343 18.6835C3.83991 18.6818 4.91638 18.683 5.99286 18.683C6.19997 18.683 6.40707 18.683 6.64226 18.683C6.66157 18.507 6.68672 18.3821 6.68731 18.2577C6.69023 16.9145 6.68263 15.5718 6.69374 14.2286C6.69608 13.9498 6.60833 13.7318 6.44393 13.5093C4.4308 10.7808 2.42352 8.04836 0.420919 5.3125C0.251257 5.08087 -0.0506252 4.85208 0.15531 4.52223C0.339013 4.22872 0.680093 4.35305 0.953893 4.35248C4.9901 4.34624 9.02689 4.34567 13.0631 4.35362C13.3726 4.35419 13.7733 4.20261 13.9658 4.54154C14.1782 4.9151 13.7897 5.15468 13.6054 5.41072C11.6695 8.10116 9.72602 10.7859 7.7673 13.461C7.50812 13.8147 7.38643 14.1633 7.39404 14.5954C7.41452 15.7512 7.3993 16.9083 7.40106 18.0647C7.40106 18.2469 7.41744 18.4298 7.42973 18.6818ZM1.20488 5.10585C1.50676 5.5254 1.7671 5.84616 1.98064 6.19418C2.19301 6.54106 2.47325 6.64609 2.88219 6.64325C5.09307 6.62565 7.30453 6.6353 9.5154 6.6353C9.68857 6.6353 9.86175 6.62906 10.0343 6.63984C10.3778 6.66142 10.5217 6.77553 10.4994 7.00489C10.4743 7.26661 10.2888 7.3353 10.0525 7.33474C9.91791 7.33474 9.78335 7.33474 9.64879 7.33474C7.55317 7.33474 5.45755 7.33474 3.36134 7.33814C3.22152 7.33814 3.08228 7.36312 2.86523 7.38356C4.28922 9.32063 5.66524 11.1924 7.08806 13.1278C9.05147 10.4243 10.9646 7.80651 12.9028 5.10585H1.20488Z" fill="#060606" stroke="#060606" stroke-width="0.176323" stroke-miterlimit="10"/>
<path d="M13.5296 8.81582C13.2991 8.81582 13.068 8.82547 12.8381 8.81298C12.6327 8.80163 12.5204 8.66992 12.5303 8.4786C12.5391 8.30033 12.628 8.14932 12.841 8.13966C13.1481 8.12661 13.4564 8.13966 13.763 8.11979C15.1384 8.0318 16.1728 7.40787 16.8035 6.21395C17.5202 4.85766 17.1797 3.21693 16.0008 2.18425C14.8389 1.16689 13.1645 1.01928 11.8365 1.82261C11.3544 2.11442 10.9846 2.51409 10.6991 2.98871C10.6219 3.11758 10.5546 3.25213 10.4716 3.37703C10.3616 3.54224 10.189 3.5763 10.0146 3.51385C9.82099 3.44459 9.78297 3.27427 9.82275 3.09601C9.84674 2.98871 9.89412 2.88255 9.94912 2.78546C10.8536 1.19016 12.4642 0.268179 14.6043 0.686592C16.4963 1.05675 17.8255 2.71904 17.9074 4.56755C17.9981 6.60511 16.4759 8.30771 14.7295 8.71704C14.5996 8.7477 14.4674 8.77665 14.3346 8.78857C14.0672 8.81242 13.7987 8.82377 13.5307 8.84023C13.5307 8.83229 13.5302 8.82377 13.5296 8.81582Z" fill="#060606" stroke="#060606" stroke-width="0.176323" stroke-miterlimit="10"/>
</g>
<defs>
<clipPath id="clip0_933_1857">
<rect width="18" height="19" fill="white" transform="translate(0 0.5)"/>
</clipPath>
</defs>
</svg>
