<?xml version="1.0" encoding="UTF-8"?>
<!DOCTYPE svg PUBLIC "-//W3C//DTD SVG 1.1//EN" "http://www.w3.org/Graphics/SVG/1.1/DTD/svg11.dtd">
<svg xmlns="http://www.w3.org/2000/svg" version="1.1" width="500px" height="500px" style="shape-rendering:geometricPrecision; text-rendering:geometricPrecision; image-rendering:optimizeQuality; fill-rule:evenodd; clip-rule:evenodd" xmlns:xlink="http://www.w3.org/1999/xlink">
<g><path style="opacity:0.987" fill="#70f7d4" d="M 246.5,499.5 C 243.833,499.5 241.167,499.5 238.5,499.5C 169.06,458.941 99.3931,418.608 29.5,378.5C 28.3333,295.502 28.1667,212.502 29,129.5C 97.7515,89.5404 166.585,49.707 235.5,10C 237.639,8.59609 239.972,7.76276 242.5,7.5C 313.988,47.4972 385.154,88.1639 456,129.5C 456.833,212.502 456.667,295.502 455.5,378.5C 385.535,418.497 315.869,458.831 246.5,499.5 Z"/></g>
<g><path style="opacity:1" fill="#0a192f" d="M 240.5,24.5 C 243.691,25.0922 246.691,26.2589 249.5,28C 313.252,64.9597 377.085,101.793 441,138.5C 441.667,215.167 441.667,291.833 441,368.5C 376.915,405.793 312.748,442.96 248.5,480C 242.839,482.292 237.506,481.626 232.5,478C 169.585,441.626 106.751,405.126 44,368.5C 43.3333,291.833 43.3333,215.167 44,138.5C 109.645,100.6 175.145,62.5995 240.5,24.5 Z"/></g>
<g><path style="opacity:1" fill="#56c1ac" d="M 395.5,140.5 C 372.498,140.333 349.498,140.5 326.5,141C 327.737,141.232 328.737,141.732 329.5,142.5C 328.167,142.5 326.833,142.5 325.5,142.5C 325.5,141.5 325.5,140.5 325.5,139.5C 349.006,139.169 372.339,139.502 395.5,140.5 Z"/></g>
<g><path style="opacity:1" fill="#70f7d4" d="M 329.5,142.5 C 328.737,141.732 327.737,141.232 326.5,141C 349.498,140.5 372.498,140.333 395.5,140.5C 380.284,143.121 367.451,150.454 357,162.5C 351.941,169.228 347.274,176.228 343,183.5C 311,253.5 279,323.5 247,393.5C 212.409,318.65 178.076,243.65 144,168.5C 135.318,152.316 121.818,143.649 103.5,142.5C 103.5,141.5 103.5,140.5 103.5,139.5C 143.5,139.5 183.5,139.5 223.5,139.5C 223.5,140.5 223.5,141.5 223.5,142.5C 215.761,141.578 209.594,144.245 205,150.5C 203.455,155.047 203.121,159.713 204,164.5C 227.469,217.436 251.469,270.102 276,322.5C 297.882,275.404 319.215,228.07 340,180.5C 342.748,172.019 343.748,163.353 343,154.5C 340.84,147.839 336.34,143.839 329.5,142.5 Z"/></g>
</svg>
