<svg width="18" height="18" viewBox="0 0 18 18" fill="none" xmlns="http://www.w3.org/2000/svg">
<g clip-path="url(#clip0_933_1789)">
<path d="M7.5 3L9 3.75L10.5 3" stroke="#060606" stroke-width="0.9" stroke-linecap="round" stroke-linejoin="round"/>
<path d="M9 1.5V6.375L11.25 7.665" stroke="#060606" stroke-width="0.9" stroke-linecap="round" stroke-linejoin="round"/>
<path d="M13.4453 4.70312L13.5458 6.37712L14.9453 7.30112" stroke="#060606" stroke-width="0.9" stroke-linecap="round" stroke-linejoin="round"/>
<path d="M15.4952 5.25L11.2734 7.6875L11.2809 10.281" stroke="#060606" stroke-width="0.9" stroke-linecap="round" stroke-linejoin="round"/>
<path d="M14.9453 10.7031L13.5458 11.6271L13.4453 13.3011" stroke="#060606" stroke-width="0.9" stroke-linecap="round" stroke-linejoin="round"/>
<path d="M15.4935 12.75L11.2718 10.3125L9.0293 11.616" stroke="#060606" stroke-width="0.9" stroke-linecap="round" stroke-linejoin="round"/>
<path d="M10.5 15L9 14.25L7.5 15" stroke="#060606" stroke-width="0.9" stroke-linecap="round" stroke-linejoin="round"/>
<path d="M9 16.5009V11.6259L6.75 10.3359" stroke="#060606" stroke-width="0.9" stroke-linecap="round" stroke-linejoin="round"/>
<path d="M4.55273 13.3011L4.45223 11.6271L3.05273 10.7031" stroke="#060606" stroke-width="0.9" stroke-linecap="round" stroke-linejoin="round"/>
<path d="M2.50391 12.7498L6.72566 10.3123L6.71816 7.71875" stroke="#060606" stroke-width="0.9" stroke-linecap="round" stroke-linejoin="round"/>
<path d="M3.05273 7.30112L4.45223 6.37712L4.55273 4.70312" stroke="#060606" stroke-width="0.9" stroke-linecap="round" stroke-linejoin="round"/>
<path d="M2.50391 5.25L6.72566 7.6875L8.96816 6.384" stroke="#060606" stroke-width="0.9" stroke-linecap="round" stroke-linejoin="round"/>
</g>
<defs>
<clipPath id="clip0_933_1789">
<rect width="18" height="18" fill="white"/>
</clipPath>
</defs>
</svg>
