<svg width="24" height="24" viewBox="0 0 24 24" fill="none" xmlns="http://www.w3.org/2000/svg">
<g clip-path="url(#clip0_1009_1409)">
<path d="M2.81355 18.3191C2.81355 18.7812 2.80169 19.1694 2.81751 19.5569C2.83003 19.8648 3.00272 20.0381 3.24462 20.0091C3.50299 19.9781 3.60647 19.8087 3.61109 19.5583C3.61834 19.1536 3.6335 18.7482 3.64602 18.3158H20.3223C20.3302 18.6151 20.3382 18.8886 20.3441 19.1621C20.3474 19.3137 20.3414 19.466 20.352 19.6169C20.3698 19.874 20.5069 20.017 20.7725 20.0012C21.0039 19.9874 21.1271 19.8496 21.1311 19.6222C21.1377 19.2135 21.133 18.8042 21.133 18.3501C21.3361 18.3251 21.4989 18.2994 21.663 18.2855C22.3775 18.2282 22.887 17.751 22.91 17.0411C22.939 16.1539 22.9423 15.2648 22.914 14.3783C22.8883 13.5821 22.3801 13.1075 21.5773 13.1009C20.0831 13.089 18.5889 13.0956 17.0946 13.0956C12.3305 13.0956 7.56645 13.0956 2.80235 13.0956C2.629 13.0956 2.45565 13.0897 2.28297 13.0989C1.60078 13.1358 1.11765 13.557 1.0926 14.2293C1.05701 15.2022 1.05767 16.1783 1.0893 17.1518C1.10908 17.7721 1.59551 18.2156 2.22694 18.2816C2.39502 18.2994 2.56507 18.304 2.81355 18.3191ZM11.9608 17.4735C9.03891 17.4735 6.11705 17.4735 3.19584 17.4735C2.97965 17.4735 2.76214 17.4807 2.54661 17.4636C2.02591 17.4208 1.89936 17.2988 1.88684 16.7814C1.87234 16.1757 1.88157 15.5693 1.88354 14.9636C1.88618 13.9485 1.94418 13.8892 2.93945 13.8892C8.91302 13.8892 14.8859 13.8892 20.8595 13.8892C20.9676 13.8892 21.0757 13.8905 21.1845 13.8918C21.9523 13.9017 22.0578 14.0013 22.065 14.7454C22.0697 15.243 22.0657 15.7407 22.065 16.239C22.065 17.0629 21.6619 17.475 20.8556 17.4755C17.8909 17.4755 14.9255 17.4755 11.9608 17.4755V17.4735Z" fill="#1d4567" stroke="#1d4567" stroke-width="0.136672" stroke-miterlimit="10"/>
<path d="M11.9674 6.07627C9.69341 6.07627 7.41814 6.11186 5.14484 6.06309C3.82397 6.03474 2.73445 7.03858 2.80498 8.42206C2.85375 9.37251 2.81487 10.3276 2.81487 11.2807C2.81487 11.3459 2.81355 11.4105 2.81487 11.4758C2.82673 11.9411 2.95987 12.1507 3.24 12.1481C3.48914 12.1461 3.61174 11.953 3.61569 11.5054C3.62294 10.6611 3.61371 9.8161 3.62097 8.97111C3.6236 8.66857 3.63613 8.36406 3.67765 8.06482C3.76399 7.44855 4.14496 7.05374 4.76124 6.93839C4.99325 6.89489 5.23382 6.87907 5.47045 6.87907C9.84566 6.87578 14.2202 6.87709 18.5954 6.87775C18.6607 6.87775 18.7253 6.87709 18.7905 6.87907C19.7812 6.91598 20.3124 7.42548 20.3375 8.42009C20.3625 9.39426 20.3454 10.3691 20.3474 11.3439C20.3474 11.4955 20.3381 11.6491 20.3606 11.7981C20.3929 12.0175 20.5359 12.154 20.7587 12.1461C20.9814 12.1382 21.1106 11.9965 21.1284 11.771C21.1383 11.6418 21.1377 11.5113 21.1377 11.3815C21.139 10.3849 21.1423 9.38899 21.1396 8.3924C21.137 6.91401 20.2881 6.07759 18.7899 6.07627C16.5159 6.07495 14.2413 6.07627 11.9674 6.07627Z" fill="#1d4567" stroke="#1d4567" stroke-width="0.136672" stroke-miterlimit="10"/>
<path d="M8.00557 9.58407C7.57253 9.58407 7.13883 9.57155 6.70579 9.58605C5.95637 9.61109 5.46269 10.1074 5.42974 10.8621C5.41721 11.1429 5.42249 11.4256 5.43303 11.7064C5.44226 11.951 5.56156 12.1184 5.82191 12.1434C6.06644 12.1671 6.23781 12.007 6.27077 11.6965C6.29582 11.4606 6.27275 11.22 6.28791 10.9827C6.31493 10.5694 6.43489 10.4066 6.82641 10.3941C7.62723 10.3691 8.42938 10.3684 9.2302 10.3941C9.64413 10.4073 9.79177 10.5912 9.82341 11.0176C9.84121 11.2549 9.82605 11.4942 9.83659 11.7321C9.8478 11.9846 9.97632 12.1474 10.24 12.1408C10.5056 12.1342 10.6176 11.9582 10.6216 11.7097C10.6269 11.3848 10.6447 11.0585 10.6203 10.7355C10.5715 10.0712 10.1055 9.61834 9.43519 9.58868C8.95931 9.56759 8.48211 9.58473 8.00557 9.58407Z" fill="#1d4567" stroke="#1d4567" stroke-width="0.136672" stroke-miterlimit="10"/>
<path d="M15.8847 9.58298C15.4523 9.58298 15.0199 9.57046 14.5875 9.58562C13.8434 9.61199 13.3754 10.0688 13.3379 10.801C13.322 11.1029 13.3346 11.4061 13.3372 11.7086C13.3392 11.9617 13.4638 12.1331 13.7195 12.1404C13.9752 12.1483 14.1103 11.9841 14.1209 11.7317C14.1301 11.5162 14.1183 11.2993 14.1308 11.0838C14.1591 10.5928 14.3219 10.4003 14.7945 10.3878C15.5505 10.368 16.3078 10.368 17.0639 10.3917C17.5186 10.4056 17.6735 10.5829 17.7091 11.0344C17.7276 11.271 17.7124 11.5102 17.7296 11.7469C17.748 11.9947 17.8792 12.1595 18.1441 12.1417C18.3656 12.1272 18.506 11.9815 18.5119 11.7614C18.5225 11.3731 18.5482 10.9783 18.4941 10.5967C18.4144 10.0318 17.9055 9.62187 17.311 9.58628C17.0744 9.57178 16.8358 9.58298 16.5979 9.58233C16.3599 9.58167 16.122 9.58233 15.8847 9.58233V9.58298Z" fill="#1d4567" stroke="#1d4567" stroke-width="0.136672" stroke-miterlimit="10"/>
</g>
<defs>
<clipPath id="clip0_1009_1409">
<rect width="22" height="14.0761" fill="white" transform="matrix(-1 0 0 1 23 6)"/>
</clipPath>
</defs>
</svg>
