<svg width="18" height="18" viewBox="0 0 18 18" fill="none" xmlns="http://www.w3.org/2000/svg">
<g clip-path="url(#clip0_933_1805)">
<path d="M1.375 10.0812C2.03208 10.5894 3.01929 10.8863 4.14583 10.8728C5.27237 10.8863 6.25958 10.5894 6.91667 10.0812C7.57375 9.57292 8.56096 9.27604 9.6875 9.2895C10.814 9.27604 11.8012 9.57292 12.4583 10.0812" stroke="#060606" stroke-width="0.9" stroke-linecap="round" stroke-linejoin="round"/>
<path d="M5.33115 1.375C5.08059 1.55484 4.87758 1.79298 4.73965 2.06884C4.60172 2.34469 4.53302 2.64998 4.53948 2.95833C4.53302 3.26668 4.60172 3.57197 4.73965 3.84783C4.87758 4.12369 5.08059 4.36182 5.33115 4.54167" stroke="#060606" stroke-width="0.9" stroke-linecap="round" stroke-linejoin="round"/>
<path d="M8.50107 1.375C8.25051 1.55484 8.0475 1.79298 7.90957 2.06884C7.77164 2.34469 7.70294 2.64998 7.7094 2.95833C7.70294 3.26668 7.77164 3.57197 7.90957 3.84783C8.0475 4.12369 8.25051 4.36182 8.50107 4.54167" stroke="#060606" stroke-width="0.9" stroke-linecap="round" stroke-linejoin="round"/>
<path d="M1.375 6.91406H12.4583V10.8724C12.4583 12.1322 11.9579 13.3404 11.0671 14.2312C10.1763 15.122 8.96811 15.6224 7.70833 15.6224H6.125C4.86522 15.6224 3.65704 15.122 2.76624 14.2312C1.87545 13.3404 1.375 12.1322 1.375 10.8724V6.91406Z" stroke="#060606" stroke-width="0.9" stroke-linecap="round" stroke-linejoin="round"/>
<path d="M12.2559 12.2444C12.6094 12.4067 12.9974 12.4796 13.3858 12.4569C13.7742 12.4341 14.151 12.3162 14.4831 12.1137C14.8153 11.9112 15.0926 11.6302 15.2907 11.2954C15.4888 10.9605 15.6017 10.5822 15.6193 10.1936C15.6369 9.80494 15.5588 9.41792 15.3918 9.06655C15.2248 8.71518 14.9741 8.4102 14.6617 8.17843C14.3492 7.94666 13.9846 7.79519 13.5999 7.73734C13.2152 7.67949 12.8222 7.71703 12.4554 7.84666" stroke="#060606" stroke-width="0.9" stroke-linecap="round" stroke-linejoin="round"/>
</g>
<defs>
<clipPath id="clip0_933_1805">
<rect width="18" height="18" fill="white"/>
</clipPath>
</defs>
</svg>
