<svg width="18" height="14" viewBox="0 0 18 14" fill="none" xmlns="http://www.w3.org/2000/svg">
<g clip-path="url(#clip0_933_1827)">
<path d="M10.9987 12.4875C11.0079 12.3314 10.8907 12.1975 10.7371 12.1882C10.5836 12.1788 10.4518 12.2979 10.4426 12.454C10.4136 12.9571 10.8989 13.4799 11.5842 13.7427C11.9809 13.8948 12.4493 13.9657 12.9186 13.8973C13.3947 13.8279 13.8713 13.6167 14.2776 13.2047C15.1771 12.292 15.72 10.3756 15.0492 6.77571C14.8661 5.7897 14.6375 3.92501 15.4759 3.23781C15.5955 3.13984 15.6149 2.96214 15.5185 2.84006C15.4221 2.71847 15.2473 2.69878 15.1272 2.79674C14.081 3.65426 14.2854 5.69716 14.5145 6.94948C15.1252 10.2816 14.6656 12.0124 13.8853 12.804C13.5724 13.1215 13.2058 13.2839 12.8401 13.3371C12.4682 13.3913 12.0962 13.3346 11.7804 13.2135C11.3159 13.0353 10.9837 12.7395 10.9982 12.4875H10.9987Z" fill="#060606" stroke="#060606" stroke-width="0.149572" stroke-miterlimit="10"/>
<path d="M16.7897 2.552L15.8747 1.62212L15.7483 1.7506C15.6229 1.87809 15.5599 2.04694 15.5599 2.2153C15.5599 2.38365 15.6229 2.5525 15.7483 2.67999C15.8738 2.80749 16.0399 2.87148 16.206 2.87148C16.3721 2.87148 16.5378 2.80749 16.6632 2.67999L16.7897 2.55151V2.552ZM16.0719 1.02057L17.3796 2.34968L17.381 2.35116C17.49 2.46192 17.49 2.6416 17.381 2.75236L17.0575 3.08119C16.8231 3.31944 16.5141 3.43857 16.2055 3.43857C15.897 3.43857 15.588 3.31944 15.3536 3.08119C15.1192 2.84293 15.002 2.52887 15.002 2.2153C15.002 1.90172 15.1192 1.58766 15.3536 1.3494L15.6762 1.02155L15.6771 1.02057C15.7861 0.90981 15.9629 0.90981 16.0719 1.02057Z" fill="#060606" stroke="#060606" stroke-width="0.149572" stroke-miterlimit="10"/>
<path d="M17.1796 2.94593C17.2886 3.05669 17.4654 3.05669 17.5743 2.94593C17.6833 2.83517 17.6833 2.6555 17.5743 2.54523L15.8821 0.825257C15.7731 0.714498 15.5963 0.714498 15.4878 0.825257C15.3793 0.936017 15.3788 1.11569 15.4878 1.22596L17.1801 2.94593H17.1796Z" fill="#060606" stroke="#060606" stroke-width="0.149572" stroke-miterlimit="10"/>
<path d="M17.8446 1.88203C17.9536 1.77127 17.9536 1.59159 17.8446 1.48132C17.7357 1.37106 17.5589 1.37056 17.4504 1.48132L16.7907 2.15179C16.6817 2.26255 16.6817 2.44222 16.7907 2.55249C16.8997 2.66325 17.0765 2.66325 17.185 2.55249L17.8446 1.88203Z" fill="#060606" stroke="#060606" stroke-width="0.149572" stroke-miterlimit="10"/>
<path d="M16.9267 0.945203C17.0356 0.834443 17.0356 0.654767 16.9267 0.544007C16.8177 0.433248 16.6409 0.433248 16.5324 0.544007L15.8727 1.21447C15.7638 1.32523 15.7638 1.50491 15.8727 1.61567C15.9817 1.72643 16.1585 1.72643 16.2675 1.61567L16.9272 0.945203H16.9267Z" fill="#060606" stroke="#060606" stroke-width="0.149572" stroke-miterlimit="10"/>
<path d="M0.351245 0.359375H1.89677C1.98056 0.359375 2.05564 0.396787 2.10698 0.456351L2.95845 1.26662L2.76907 1.47238L2.9599 1.26514C3.0185 1.32077 3.04805 1.39658 3.04805 1.47238V5.33568C3.04805 5.42379 3.00833 5.50255 2.94634 5.55473L2.09148 6.37977L1.89968 6.17499L2.09196 6.38075C2.0382 6.43293 1.96894 6.45853 1.89968 6.45853H0.351245C0.197225 6.45853 0.0722656 6.33153 0.0722656 6.17499V0.642919C0.0722656 0.486379 0.197225 0.359375 0.351245 0.359375ZM1.78877 0.926464H0.630225V5.89144H1.78877L2.4896 5.21507V1.59348L1.78828 0.926464H1.78877Z" fill="#060606" stroke="#060606" stroke-width="0.149572" stroke-miterlimit="10"/>
<path d="M2.74985 1.19464L10.5133 0.095418C10.6334 0.0781887 10.7492 0.0703125 10.8606 0.0703125C11.6036 0.0703125 12.2763 0.407514 12.7883 0.935713C13.2905 1.45407 13.6378 2.15899 13.7405 2.90674C13.7618 3.06131 13.7724 3.2149 13.7724 3.36602C13.7724 3.50238 13.7628 3.64415 13.7448 3.78937C13.6489 4.54795 13.3012 5.26173 12.7936 5.7855C12.2778 6.31813 11.5963 6.65829 10.8422 6.65829V6.65927C10.74 6.65927 10.6315 6.65189 10.5162 6.63712L2.73435 5.62059L2.76922 5.3405L2.73386 5.62158C2.59244 5.60287 2.48927 5.47981 2.49024 5.33853V1.4772C2.49024 1.32756 2.60455 1.20449 2.74936 1.19415L2.74985 1.19464ZM10.5899 0.656107L3.0482 1.72334V5.0919L10.5865 6.07643C10.6673 6.08677 10.7531 6.09218 10.8427 6.09218V6.09317C11.4374 6.09317 11.9809 5.81848 12.3974 5.38874C12.8222 4.95013 13.1133 4.35252 13.1937 3.71848C13.2077 3.60723 13.215 3.48958 13.215 3.36602C13.215 3.23508 13.2063 3.10709 13.1893 2.98403C13.1031 2.35688 12.8125 1.76567 12.3921 1.33199C11.9809 0.908147 11.4462 0.636909 10.8611 0.636909C10.7691 0.636909 10.6785 0.642816 10.5899 0.655615V0.656107Z" fill="#060606" stroke="#060606" stroke-width="0.149572" stroke-miterlimit="10"/>
<path d="M10.6054 1.52344C11.1062 1.52344 11.56 1.7297 11.8884 2.06345C12.2167 2.39721 12.4197 2.85797 12.4197 3.36746C12.4197 3.87695 12.2167 4.33771 11.8884 4.67147C11.56 5.00522 11.1066 5.21148 10.6054 5.21148C10.1041 5.21148 9.65072 5.00522 9.32234 4.67147C8.99395 4.33771 8.79102 3.87695 8.79102 3.36746C8.79102 2.85797 8.99395 2.39721 9.32234 2.06345C9.65072 1.7297 10.1041 1.52344 10.6054 1.52344ZM11.4936 2.46465C11.2665 2.23378 10.9521 2.09053 10.6054 2.09053C10.2586 2.09053 9.94423 2.23328 9.71707 2.46465C9.48992 2.69552 9.34898 3.015 9.34898 3.36746C9.34898 3.71992 9.48943 4.0394 9.71707 4.27027C9.94423 4.50114 10.2586 4.64439 10.6054 4.64439C10.9521 4.64439 11.2665 4.50164 11.4936 4.27027C11.7208 4.0394 11.8617 3.71992 11.8617 3.36746C11.8617 3.015 11.7213 2.69552 11.4936 2.46465Z" fill="#060606" stroke="#060606" stroke-width="0.149572" stroke-miterlimit="10"/>
<path d="M12.0784 6.10007C12.1046 6.18769 12.1245 6.27482 12.1375 6.36146C12.1521 6.45794 12.1598 6.55689 12.1598 6.65731V10.4984C12.1598 10.9577 12.0014 11.3781 11.7462 11.6848C11.4803 12.0048 11.1098 12.2032 10.699 12.2032C10.2883 12.2032 9.91781 12.0048 9.65191 11.6848C9.39666 11.3781 9.23828 10.9577 9.23828 10.4984V6.65731C9.23828 6.57953 9.24409 6.49781 9.25475 6.41167C9.26492 6.32848 9.28042 6.24824 9.29979 6.17144L9.56909 6.24233L9.29931 6.17095C9.3366 6.02573 9.47803 5.93614 9.62091 5.96371L10.592 6.11385C10.7804 6.14289 10.9635 6.13895 11.1379 6.10646C11.3234 6.07151 11.5021 6.00457 11.6721 5.91054V5.90956C11.8067 5.83473 11.9763 5.88544 12.0499 6.02278C12.0629 6.04739 12.0726 6.07348 12.078 6.10007H12.0784ZM11.6023 6.65731C11.6023 6.62531 11.6014 6.59381 11.5994 6.5623C11.4822 6.60562 11.3621 6.63909 11.2391 6.66174C11.0022 6.70604 10.7581 6.71195 10.5102 6.67355L9.80011 6.56378C9.79866 6.59282 9.79769 6.62383 9.79769 6.65682V10.498C9.79769 10.8204 9.90522 11.1108 10.0781 11.3191C10.2404 11.5145 10.4608 11.6356 10.7 11.6356C10.9393 11.6356 11.1597 11.5145 11.3219 11.3191C11.4948 11.1108 11.6023 10.8204 11.6023 10.498V6.65682V6.65731Z" fill="#060606" stroke="#060606" stroke-width="0.149572" stroke-miterlimit="10"/>
<path fill-rule="evenodd" clip-rule="evenodd" d="M9.51709 7.65625H9.31076C9.06133 7.65625 8.85742 7.86349 8.85742 8.11701V9.22067C8.85742 9.47418 9.06133 9.68192 9.31076 9.68192H9.51709V7.65625Z" fill="#060606" stroke="#060606" stroke-width="0.149572" stroke-miterlimit="10"/>
<path fill-rule="evenodd" clip-rule="evenodd" d="M10.25 11.6094V12.1135C10.25 12.3758 10.4612 12.5905 10.7193 12.5905C10.9775 12.5905 11.1887 12.3758 11.1887 12.1135V11.6094H10.25Z" fill="#060606" stroke="#060606" stroke-width="0.149572" stroke-miterlimit="10"/>
</g>
<defs>
<clipPath id="clip0_933_1827">
<rect width="18" height="14" fill="white"/>
</clipPath>
</defs>
</svg>
