<svg width="56" height="56" viewBox="0 0 56 56" fill="none" xmlns="http://www.w3.org/2000/svg">
<g clip-path="url(#clip0_406_74397)">
<path d="M32.7071 20.7071L33.4142 20L32 18.5858L31.2929 19.2929L32.7071 20.7071ZM24 28L23.2929 27.2929C22.9024 27.6834 22.9024 28.3166 23.2929 28.7071L24 28ZM31.2929 36.7071C31.6834 37.0976 32.3166 37.0976 32.7071 36.7071C33.0976 36.3166 33.0976 35.6834 32.7071 35.2929L31.2929 36.7071ZM31.2929 19.2929L23.2929 27.2929L24.7071 28.7071L32.7071 20.7071L31.2929 19.2929ZM23.2929 28.7071L31.2929 36.7071L32.7071 35.2929L24.7071 27.2929L23.2929 28.7071Z" fill="#928D88"/>
</g>
<rect x="0.5" y="0.5" width="55" height="55" rx="27.5" stroke="#928D88"/>
<defs>
<clipPath id="clip0_406_74397">
<rect width="32" height="32" fill="white" transform="translate(12 12)"/>
</clipPath>
</defs>
</svg>
