<?xml version="1.0" standalone="no"?>
<!DOCTYPE svg PUBLIC "-//W3C//DTD SVG 20010904//EN"
 "http://www.w3.org/TR/2001/REC-SVG-20010904/DTD/svg10.dtd">
<svg version="1.0" xmlns="http://www.w3.org/2000/svg"
 width="500.000000pt" height="500.000000pt" viewBox="0 0 500.000000 500.000000"
 preserveAspectRatio="xMidYMid meet">

<g transform="translate(0.000000,500.000000) scale(0.100000,-0.100000)"
fill="#000000" stroke="none">
<path d="M1430 4181 l-985 -569 -3 -1151 -2 -1150 22 -15 c13 -8 453 -262 978
-565 686 -397 963 -551 985 -551 30 0 210 101 1490 838 l500 288 0 1153 0
1152 -989 570 c-543 313 -993 569 -1000 568 -6 0 -454 -256 -996 -568z m810
-595 c0 -9 -18 -15 -51 -19 -105 -13 -156 -74 -146 -178 4 -48 56 -168 325
-761 176 -386 338 -740 359 -786 l38 -83 279 613 c314 687 356 785 380 879 43
174 -3 293 -125 318 -17 3 -31 11 -32 16 -1 6 121 11 346 13 304 2 347 0 347
-13 0 -11 -11 -15 -40 -15 -138 0 -311 -132 -439 -335 -47 -75 -410 -858 -861
-1858 -79 -174 -145 -315 -148 -313 -2 3 -234 508 -513 1122 -280 615 -523
1139 -540 1166 -77 119 -233 218 -346 218 -23 0 -33 5 -33 15 0 13 73 15 600
15 499 0 600 -2 600 -14z"/>
</g>
</svg>
