<svg width="18" height="18" viewBox="0 0 18 18" fill="none" xmlns="http://www.w3.org/2000/svg">
<g clip-path="url(#clip0_933_1565)">
<path d="M6.75 3.75C6.75 3.15326 6.98705 2.58097 7.40901 2.15901C7.83097 1.73705 8.40326 1.5 9 1.5C9.59674 1.5 10.169 1.73705 10.591 2.15901C11.0129 2.58097 11.25 3.15326 11.25 3.75V7.5C11.25 8.09674 11.0129 8.66903 10.591 9.09099C10.169 9.51295 9.59674 9.75 9 9.75C8.40326 9.75 7.83097 9.51295 7.40901 9.09099C6.98705 8.66903 6.75 8.09674 6.75 7.5V3.75Z" stroke="black" stroke-width="0.9" stroke-linecap="round" stroke-linejoin="round"/>
<path d="M3.75 7.5C3.75 8.89239 4.30312 10.2277 5.28769 11.2123C6.27226 12.1969 7.60761 12.75 9 12.75C10.3924 12.75 11.7277 12.1969 12.7123 11.2123C13.6969 10.2277 14.25 8.89239 14.25 7.5" stroke="black" stroke-width="0.9" stroke-linecap="round" stroke-linejoin="round"/>
<path d="M6 15.75H12" stroke="black" stroke-width="0.9" stroke-linecap="round" stroke-linejoin="round"/>
<path d="M9 12.75V15.75" stroke="black" stroke-width="0.9" stroke-linecap="round" stroke-linejoin="round"/>
</g>
<defs>
<clipPath id="clip0_933_1565">
<rect width="18" height="18" fill="white"/>
</clipPath>
</defs>
</svg>
