<svg width="18" height="18" viewBox="0 0 18 18" fill="none" xmlns="http://www.w3.org/2000/svg">
<path d="M8.8836 4C10.1637 4 11.0977 4.26235 11.6858 4.78705C12.2738 5.31175 12.5678 6.04679 12.5678 6.99215C12.5678 7.42187 12.5 7.83122 12.3643 8.22023C12.2331 8.60471 12.016 8.94621 11.7129 9.24475C11.4099 9.53876 11.0095 9.77171 10.512 9.9436C10.0189 10.1155 9.41056 10.2014 8.68683 10.2014H7.62838V13.9196H6V4H8.8836ZM8.77504 5.3502H7.62838V8.84444H8.51721C9.02834 8.84444 9.46258 8.78564 9.81992 8.66803C10.1773 8.5459 10.4487 8.35366 10.6341 8.09131C10.8196 7.82896 10.9123 7.48293 10.9123 7.05322C10.9123 6.47876 10.7381 6.05131 10.3898 5.77087C10.0461 5.49042 9.50781 5.3502 8.77504 5.3502Z" fill="#060606"/>
<rect x="0.6" y="0.6" width="16.8" height="16.8" rx="2.16136" stroke="#060606" stroke-width="1.2"/>
</svg>
