<svg width="24" height="24" viewBox="0 0 24 24" fill="none" xmlns="http://www.w3.org/2000/svg">
<g clip-path="url(#clip0_1009_1660)">
<path d="M5 7C5 8.06087 5.42143 9.07828 6.17157 9.82843C6.92172 10.5786 7.93913 11 9 11C10.0609 11 11.0783 10.5786 11.8284 9.82843C12.5786 9.07828 13 8.06087 13 7C13 5.93913 12.5786 4.92172 11.8284 4.17157C11.0783 3.42143 10.0609 3 9 3C7.93913 3 6.92172 3.42143 6.17157 4.17157C5.42143 4.92172 5 5.93913 5 7Z" stroke="#1d4567" stroke-width="1.2" stroke-linecap="round" stroke-linejoin="round"/>
<path d="M3 21V19C3 17.9391 3.42143 16.9217 4.17157 16.1716C4.92172 15.4214 5.93913 15 7 15H11C12.0609 15 13.0783 15.4214 13.8284 16.1716C14.5786 16.9217 15 17.9391 15 19V21" stroke="#1d4567" stroke-width="1.2" stroke-linecap="round" stroke-linejoin="round"/>
<path d="M16 3.13281C16.8604 3.35311 17.623 3.85351 18.1676 4.55512C18.7122 5.25673 19.0078 6.11964 19.0078 7.00781C19.0078 7.89598 18.7122 8.75889 18.1676 9.4605C17.623 10.1621 16.8604 10.6625 16 10.8828" stroke="#1d4567" stroke-width="1.2" stroke-linecap="round" stroke-linejoin="round"/>
<path d="M21 20.9984V18.9984C20.9949 18.1156 20.6979 17.2592 20.1553 16.5628C19.6126 15.8664 18.8548 15.3691 18 15.1484" stroke="#1d4567" stroke-width="1.2" stroke-linecap="round" stroke-linejoin="round"/>
</g>
<defs>
<clipPath id="clip0_1009_1660">
<rect width="24" height="24" fill="white"/>
</clipPath>
</defs>
</svg>
