<svg width="16" height="16" viewBox="0 0 16 16" fill="none" xmlns="http://www.w3.org/2000/svg">
<path d="M8.3786 15.1472C9.6819 15.1472 10.9075 15.1472 12.1332 15.1472C12.3087 15.1472 12.4842 15.1411 12.6591 15.1508C12.8957 15.1634 13.0801 15.2561 13.0955 15.5292C13.108 15.7446 12.952 15.8878 12.6698 15.9191C12.5352 15.9341 12.3976 15.9245 12.2612 15.9245C9.37772 15.9245 6.49479 15.9245 3.61128 15.9245C3.4749 15.9245 3.33496 15.9371 3.20392 15.9107C3.00588 15.8704 2.8861 15.7163 2.93176 15.5232C2.96259 15.3926 3.07347 15.2398 3.18969 15.1833C3.31836 15.1201 3.49388 15.1496 3.64923 15.149C4.74026 15.1472 5.83128 15.1484 6.92231 15.1484C7.13222 15.1484 7.34212 15.1484 7.58049 15.1484C7.60005 14.9618 7.62555 14.8295 7.62614 14.6977C7.62911 13.2742 7.6214 11.8512 7.63267 10.4277C7.63504 10.1322 7.5461 9.90121 7.37948 9.66535C5.33914 6.77373 3.30472 3.8779 1.27506 0.979063C1.1031 0.733582 0.797138 0.49111 1.00586 0.14154C1.19204 -0.169522 1.78412 0.123237 2.0589 0.161996C8 1 9 1.08315 13.9355 0.203915C14.2492 0.204517 14.808 -0.197201 15.003 0.161996C15.2183 0.557894 14.8246 0.811797 14.6378 1.08315C12.6757 3.93446 10.7059 6.77975 8.72073 9.61481C8.45805 9.98965 8.33472 10.3591 8.34243 10.8169C8.36318 12.0419 8.34776 13.2681 8.34954 14.4937C8.34954 14.6869 8.36615 14.88 8.3786 15.1472Z" fill="#060606"/>
</svg>
