<svg width="18" height="14" viewBox="0 0 18 14" fill="none" xmlns="http://www.w3.org/2000/svg">
<g clip-path="url(#clip0_933_1815)">
<path d="M17.9948 13.6155C17.9932 13.0864 18.0127 12.5556 17.985 12.0276C17.959 11.5374 17.5597 11.1467 17.0855 11.0934C16.9796 11.0817 16.8715 11.0873 16.7645 11.0873C11.5901 11.0873 6.41578 11.0861 1.24142 11.0895C1.04804 11.0895 0.837831 11.0884 0.664555 11.1606C0.275093 11.3224 0.0241413 11.6269 0.0105629 12.0765C-0.00410271 12.569 -0.00301743 13.0625 0.00784683 13.5549C0.0149078 13.8739 0.103991 13.9634 0.434788 13.984C0.754723 14.004 1.07629 13.9979 1.39676 13.9979C3.93017 13.999 6.46412 13.9979 8.99753 13.9979V13.9845C11.7629 13.9845 14.5282 13.9845 17.2936 13.9845" fill="#060606"/>
<path d="M0.670673 13.2614C0.670673 12.8968 0.654919 12.5884 0.675016 12.2816C0.69783 11.9342 0.841774 11.7992 1.17963 11.7636C1.28555 11.7525 1.39365 11.7608 1.50066 11.7608C6.49794 11.7608 11.4952 11.7608 16.4925 11.7608C16.6348 11.7608 16.7793 11.7569 16.9195 11.7764C17.1617 11.8103 17.3127 11.9626 17.3241 12.2121C17.3393 12.5528 17.3279 12.8946 17.3279 13.2614H0.670673Z" fill="#060606"/>
<path d="M10.2597 2.28171C10.5041 1.46972 10.5226 0.730541 9.7556 0.218671C9.2814 -0.0975654 8.61437 -0.0697766 8.14398 0.295368C7.47912 0.811684 7.50682 1.50196 7.75288 2.28949C7.57037 2.34118 7.40633 2.38842 7.24175 2.434C4.11736 3.30378 2.23849 5.38405 1.54484 8.60033C1.46499 8.97159 1.46174 9.36063 1.43349 9.74245C1.42534 9.84916 1.41937 9.98532 1.47423 10.0604C1.54973 10.1637 1.68716 10.2854 1.79308 10.281C1.90171 10.2766 2.03805 10.1493 2.10052 10.0392C2.15647 9.93975 2.13202 9.7908 2.13745 9.66353C2.30747 5.70363 5.57743 2.94531 8.93268 2.91752C11.824 2.89362 14.8593 4.90831 15.6703 8.28132C15.7719 8.7037 15.8007 9.14499 15.8577 9.5785C15.8718 9.68632 15.8555 9.79858 15.8691 9.90696C15.9001 10.1598 16.0381 10.3127 16.2298 10.2982C16.4759 10.2799 16.5731 10.097 16.5639 9.88195C16.5454 9.44511 16.5438 8.99882 16.4514 8.57588C15.748 5.36405 13.8664 3.286 10.7377 2.42733C10.5872 2.3862 10.4384 2.33618 10.2597 2.28116V2.28171ZM9.01361 2.19946C8.62252 2.20946 8.2651 1.8432 8.27108 1.43916C8.27705 1.05067 8.6084 0.711645 8.98754 0.704975C9.38352 0.698306 9.73116 1.05567 9.7317 1.46917C9.7317 1.84487 9.39275 2.18945 9.01361 2.1989V2.19946Z" fill="#060606"/>
<path d="M7.22917 4.78962C7.05264 4.84686 6.93151 4.87521 6.81852 4.92467C5.82396 5.36096 5.06078 6.07402 4.47306 6.99383C4.42472 7.06941 4.35519 7.15778 4.36008 7.23559C4.36822 7.3662 4.39267 7.54349 4.4774 7.6074C4.56649 7.67465 4.74465 7.66409 4.86524 7.6263C4.94889 7.60018 5.00972 7.47513 5.06621 7.38509C5.5692 6.58478 6.2308 5.97398 7.08686 5.58938C7.18409 5.54547 7.30739 5.51268 7.36279 5.43376C7.43667 5.32817 7.50782 5.17088 7.48338 5.0575C7.46002 4.94968 7.31173 4.87021 7.22917 4.78906V4.78962Z" fill="#060606"/>
</g>
<defs>
<clipPath id="clip0_933_1815">
<rect width="18" height="14" fill="white" transform="matrix(-1 0 0 1 18 0)"/>
</clipPath>
</defs>
</svg>
