<svg width="18" height="18" viewBox="0 0 18 18" fill="none" xmlns="http://www.w3.org/2000/svg">
<g clip-path="url(#clip0_933_1862)">
<path d="M5.00195 8.50781C5.00195 8.27575 5.09414 8.05319 5.25823 7.88909C5.42233 7.725 5.64489 7.63281 5.87695 7.63281H11.127C11.359 7.63281 11.5816 7.725 11.7457 7.88909C11.9098 8.05319 12.002 8.27575 12.002 8.50781V11.1328C12.002 11.3649 11.9098 11.5874 11.7457 11.7515C11.5816 11.9156 11.359 12.0078 11.127 12.0078H5.87695C5.64489 12.0078 5.42233 11.9156 5.25823 11.7515C5.09414 11.5874 5.00195 11.3649 5.00195 11.1328V8.50781Z" stroke="#060606" stroke-width="0.9" stroke-linecap="round" stroke-linejoin="round"/>
<path d="M6.74805 7.61719V5.86719C6.74805 5.40306 6.93242 4.95794 7.26061 4.62975C7.5888 4.30156 8.03392 4.11719 8.49805 4.11719C8.96218 4.11719 9.40729 4.30156 9.73548 4.62975C10.0637 4.95794 10.248 5.40306 10.248 5.86719V7.61719" stroke="#060606" stroke-width="0.9" stroke-linecap="round" stroke-linejoin="round"/>
<path d="M1.49805 3.24219C1.49805 2.77806 1.68242 2.33294 2.01061 2.00475C2.3388 1.67656 2.78392 1.49219 3.24805 1.49219H13.748C14.2122 1.49219 14.6573 1.67656 14.9855 2.00475C15.3137 2.33294 15.498 2.77806 15.498 3.24219V13.7422C15.498 14.2063 15.3137 14.6514 14.9855 14.9796C14.6573 15.3078 14.2122 15.4922 13.748 15.4922H3.24805C2.78392 15.4922 2.3388 15.3078 2.01061 14.9796C1.68242 14.6514 1.49805 14.2063 1.49805 13.7422V3.24219Z" stroke="#060606" stroke-width="0.9" stroke-linecap="round" stroke-linejoin="round"/>
</g>
<defs>
<clipPath id="clip0_933_1862">
<rect width="18" height="18" fill="white"/>
</clipPath>
</defs>
</svg>
