<svg width="24" height="24" viewBox="0 0 24 24" fill="none" xmlns="http://www.w3.org/2000/svg">
<g clip-path="url(#clip0_1009_1648)">
<path d="M3 5H14" stroke="#1d4567" stroke-width="1.2" stroke-linecap="round" stroke-linejoin="round"/>
<path d="M12 7L14 5L12 3" stroke="#1d4567" stroke-width="1.2" stroke-linecap="round" stroke-linejoin="round"/>
<path d="M5 3L3 5L5 7" stroke="#1d4567" stroke-width="1.2" stroke-linecap="round" stroke-linejoin="round"/>
<path d="M19 10V21" stroke="#1d4567" stroke-width="1.2" stroke-linecap="round" stroke-linejoin="round"/>
<path d="M17 19L19 21L21 19" stroke="#1d4567" stroke-width="1.2" stroke-linecap="round" stroke-linejoin="round"/>
<path d="M21 12L19 10L17 12" stroke="#1d4567" stroke-width="1.2" stroke-linecap="round" stroke-linejoin="round"/>
<path d="M3 12C3 11.4696 3.21071 10.9609 3.58579 10.5858C3.96086 10.2107 4.46957 10 5 10H12C12.5304 10 13.0391 10.2107 13.4142 10.5858C13.7893 10.9609 14 11.4696 14 12V19C14 19.5304 13.7893 20.0391 13.4142 20.4142C13.0391 20.7893 12.5304 21 12 21H5C4.46957 21 3.96086 20.7893 3.58579 20.4142C3.21071 20.0391 3 19.5304 3 19V12Z" stroke="#1d4567" stroke-width="1.2" stroke-linecap="round" stroke-linejoin="round"/>
</g>
<defs>
<clipPath id="clip0_1009_1648">
<rect width="24" height="24" fill="white"/>
</clipPath>
</defs>
</svg>
