<svg width="18" height="12" viewBox="0 0 18 12" fill="none" xmlns="http://www.w3.org/2000/svg">
<path d="M16.9208 3.25487C17.6942 2.50945 17.6953 1.30343 16.923 0.558008C16.1507 -0.186357 14.8995 -0.186355 14.1261 0.560128C13.3538 1.30449 13.3538 2.51157 14.1261 3.25593C14.8995 4.00242 16.1496 4.0003 16.9219 3.25593L16.9208 3.25487Z" fill="#060606"/>
<path d="M16.5264 9.75865C16.0474 9.28535 15.3806 9.01005 14.6951 9.0037C14.0008 8.99205 13.3373 9.25994 12.8495 9.72583C12.3057 10.2447 11.4214 10.2457 10.8468 9.70042C9.85156 8.75699 8.23229 8.75593 7.237 9.6983C6.67124 10.233 5.78032 10.2362 5.21127 9.70254C4.19731 8.75276 2.55935 8.76441 1.55967 9.72795L0.165607 11.0716C-0.0552023 11.2844 -0.0552023 11.6286 0.165607 11.8414C0.275462 11.9473 0.420472 12.0013 0.564383 12.0013C0.708293 12.0013 0.853303 11.9483 0.963158 11.8414L2.35722 10.4977C2.92407 9.95242 3.85016 9.94712 4.4236 10.484C5.43647 11.4316 7.01948 11.4284 8.02685 10.4755C8.58492 9.94607 9.49453 9.94713 10.0834 10.5051C11.0655 11.4369 12.6628 11.4348 13.6438 10.4998C13.9184 10.2383 14.3051 10.0837 14.6852 10.0922C15.0708 10.0954 15.4476 10.251 15.7178 10.5178L17.0306 11.8181C17.2481 12.0341 17.6051 12.0383 17.8293 11.8297C18.0523 11.6201 18.0578 11.2749 17.8402 11.06L16.5275 9.75971L16.5264 9.75865Z" fill="#060606"/>
<path d="M0.563283 9.27472C0.707194 9.27472 0.852203 9.22179 0.962059 9.11484L2.35612 7.77117C2.92297 7.22587 3.84906 7.22057 4.4225 7.7574C5.43537 8.70507 7.01839 8.70189 8.02577 7.74894C8.58383 7.22058 9.49343 7.22057 10.0823 7.77857C11.0644 8.71035 12.6617 8.70824 13.6427 7.77223C13.9173 7.50964 14.304 7.36775 14.6841 7.36458C15.0697 7.36775 15.4465 7.52341 15.7167 7.79023L17.0295 9.09048C17.247 9.30648 17.604 9.31072 17.8282 9.10213C18.0512 8.89248 18.0567 8.5473 17.8391 8.33236L16.5264 7.0321C16.0474 6.5588 15.3806 6.2835 14.6951 6.27715C14.0008 6.27291 13.3373 6.53338 12.8495 6.99927C12.3057 7.5181 11.4214 7.51916 10.8468 6.97386C9.85156 6.03043 8.23229 6.02937 7.237 6.97174C6.67124 7.50645 5.78032 7.50963 5.21127 6.97598C4.19731 6.0262 2.55935 6.03784 1.55967 7.00139L0.165607 8.34506C-0.0552024 8.55789 -0.0552024 8.90202 0.165607 9.11484C0.275462 9.22073 0.420472 9.27472 0.564383 9.27472H0.563283Z" fill="#060606"/>
<path d="M3.82605 4.96402L9.01672 3.46364C9.01672 3.46364 9.02002 3.46682 9.02002 3.46894C9.20568 3.41388 9.41221 3.45095 9.55941 3.59283C9.76265 3.78977 9.76814 4.10424 9.5737 4.30859L8.07087 5.29968C8.38286 5.21921 8.70694 5.17473 9.0387 5.17473C10.0208 5.17473 10.9436 5.53686 11.6379 6.19546C11.7247 6.27699 11.8126 6.29392 11.8708 6.29392C11.9202 6.29392 11.9916 6.28122 12.0542 6.22193C12.7551 5.55274 13.6889 5.18532 14.7039 5.18532C14.7863 5.18532 14.8676 5.19273 14.9489 5.19908C14.8237 4.95979 14.6523 4.71201 14.4018 4.46742L12.1685 2.32327C11.1249 1.19984 9.83076 1.56303 9.68465 1.60326L3.35368 3.46576C3.02302 3.60235 2.74179 4.03753 2.86922 4.44201C2.99775 4.84437 3.47123 5.02755 3.82497 4.9619L3.82605 4.96402Z" fill="#060606"/>
</svg>
