<svg width="18" height="18" viewBox="0 0 18 18" fill="none" xmlns="http://www.w3.org/2000/svg">
<g clip-path="url(#clip0_933_1782)">
<path d="M6.91602 2.96094H10.0827V1.3776C10.0827 1.16764 9.99927 0.966278 9.85081 0.817811C9.70234 0.669345 9.50098 0.585938 9.29102 0.585938H7.70768C7.49772 0.585938 7.29636 0.669345 7.14789 0.817811C6.99942 0.966278 6.91602 1.16764 6.91602 1.3776V2.96094Z" stroke="#060606" stroke-width="1.1875" stroke-linecap="round" stroke-linejoin="round"/>
<path d="M10.0827 1.77344C10.0827 3.06069 10.4841 4.31627 11.2306 5.36523L11.2702 5.42065C12.0427 6.50578 12.4578 7.80471 12.4577 9.13673V14.0443C12.4577 14.4642 12.2909 14.8669 11.9939 15.1639C11.697 15.4608 11.2943 15.6276 10.8743 15.6276H6.12435C5.70442 15.6276 5.3017 15.4608 5.00476 15.1639C4.70783 14.8669 4.54102 14.4642 4.54102 14.0443V9.13594C4.54102 7.80435 4.95585 6.50602 5.72852 5.42065L5.7681 5.36523C6.51478 4.31639 6.91602 3.06091 6.91602 1.77344" stroke="#060606" stroke-width="1.1875" stroke-linecap="round" stroke-linejoin="round"/>
<path d="M4.54102 10.7169C4.85768 10.5807 5.13135 10.3609 5.33268 10.0811C5.51253 9.83059 5.75066 9.62758 6.02652 9.48965C6.30238 9.35172 6.60766 9.28302 6.91602 9.28948C7.22437 9.28302 7.52966 9.35172 7.80551 9.48965C8.08137 9.62758 8.31951 9.83059 8.49935 10.0811C8.67919 10.3317 8.91733 10.5347 9.19318 10.6726C9.46904 10.8106 9.77433 10.8793 10.0827 10.8728C10.391 10.8793 10.6963 10.8106 10.9722 10.6726C11.248 10.5347 11.4862 10.3317 11.666 10.0811C11.8671 9.80077 12.1408 9.58046 12.4577 9.44385" stroke="#060606" stroke-width="1.1875" stroke-linecap="round" stroke-linejoin="round"/>
</g>
<defs>
<clipPath id="clip0_933_1782">
<rect width="18" height="18" fill="white"/>
</clipPath>
</defs>
</svg>
